# xmcd
#
# Track frame offsets:
#        150
#        11665
#        26675
#        39780
#        57270
#        72595
#        85067
#        99235
#        112942
#        126905
#        140030
#        152495
#        165287
#        177560
#
# Disc length: 2536 seconds
#
# Revision: 3
# Processed by: cddbd v1.5.1PL2 Copyright (c) Steve Scherf et al.
# Submitted via: ExactAudioCopy v0.95b3
#
DISCID=ae09e60e
DTITLE=Jimmy Rogers - Chicago Bound
DYEAR=1900
DGENRE=Blues
TTITLE0=You're The One
TTITLE1=Money, Marbles And Chalk
TTITLE2=Luedella
TTITLE3=Act Like You Love Me
TTITLE4=Back Door Friend
TTITLE5=Last Time
TTITLE6=I Used To Have A Woman
TTITLE7=Sloppy Drunk
TTITLE8=Blues Leave Me Alone
TTITLE9=Out On The Road
TTITLE10=Goin' Away Baby
TTITLE11=That's All Right
TTITLE12=Chicago Bound
TTITLE13=Walking By Myself
EXTD=CHD-93000\n\nSubmitted 6/25/97\n[Jmccoy@efn.org]
EXTT0=
EXTT1=
EXTT2=
EXTT3=
EXTT4=
EXTT5=
EXTT6=
EXTT7=
EXTT8=
EXTT9=
EXTT10=
EXTT11=
EXTT12=
EXTT13=
PLAYORDER=
